<svg width="21" height="24" viewBox="0 0 21 24" fill="none" xmlns="http://www.w3.org/2000/svg">
    <path fill-rule="evenodd" clip-rule="evenodd"
        d="M12.1454 8.54928C12.8796 8.1832 13.8138 7.64432 14.749 6.906C14.9462 7.31552 14.9678 7.67288 14.8662 7.96144C14.7942 8.1648 14.6586 8.34168 14.4802 8.4824C14.287 8.63448 14.0457 8.7452 13.779 8.80504C13.2729 8.91904 12.682 8.85248 12.1454 8.54928ZM12.2727 12.3002L13.2446 12.8615C11.2602 13.9737 10.7208 16.0388 10.08 18.0502C9.43928 16.0388 8.89976 13.9737 6.91552 12.8615L7.88736 12.3002C7.98137 12.2646 8.06173 12.2003 8.11691 12.1163C8.1721 12.0323 8.19928 11.933 8.19456 11.8326C8.10552 9.9488 8.61416 9.11576 9.30024 8.59272C9.54632 8.40536 9.81496 8.31128 10.08 8.31128C10.345 8.31128 10.6137 8.40536 10.8598 8.59272C11.5459 9.11576 12.0546 9.9488 11.9655 11.8326C11.9608 11.933 11.988 12.0323 12.0432 12.1163C12.0984 12.2003 12.1787 12.2646 12.2727 12.3002ZM10.08 0C11.2034 0.03016 12.3295 0.24824 13.3069 0.67248C13.9837 0.96664 14.6152 1.3552 15.187 1.81984C15.4453 2.0296 15.6579 2.23224 15.8922 2.46552C16.5239 2.48736 17.4472 1.78552 17.8758 1.1288C17.1382 3.5472 13.7719 6.40312 11.4414 7.49592C11.4405 7.49552 11.4398 7.49496 11.4391 7.49448C11.0209 7.17512 10.5505 7.01544 10.08 7.01544C9.60952 7.01544 9.1392 7.17512 8.72096 7.49448C8.72024 7.49488 8.7196 7.4956 8.71864 7.49592C6.38808 6.40312 3.02192 3.5472 2.28424 1.1288C2.7128 1.78552 3.63608 2.48736 4.26784 2.46552C4.50216 2.23232 4.7148 2.0296 4.97296 1.81984C5.5448 1.3552 6.17632 0.96664 6.85312 0.67248C7.83056 0.24824 8.95672 0.03016 10.08 0ZM8.01456 8.54928C7.28048 8.1832 6.34624 7.64432 5.41104 6.906C5.21384 7.31552 5.19224 7.67288 5.29376 7.96144C5.36584 8.1648 5.50152 8.34168 5.67984 8.4824C5.87312 8.63448 6.1144 8.7452 6.38112 8.80504C6.8872 8.91904 7.478 8.85248 8.01456 8.54928Z"
        fill="#e0efbc" />
    <path fill-rule="evenodd" clip-rule="evenodd"
        d="M15.7734 6.00129C16.2882 5.48169 16.7419 4.90657 17.1067 4.39337L17.292 4.74209C17.8885 5.93545 18.1984 7.12401 18.1984 8.46161L18.1971 10.5842L18.2083 11.6845C18.2515 14.3858 18.836 17.1188 20.16 19.6199L17.3898 17.3862L15.4298 20.5669L13.3706 18.6284L10.08 23.9683L6.78944 18.6285L4.73032 20.567L2.77024 17.3863L0 19.62C1.324 17.1189 1.90848 14.3859 1.95176 11.6846L1.96296 10.5843L1.96168 8.46169C1.96168 7.12401 2.27152 5.93545 2.86816 4.74217L3.05336 4.39345C3.41816 4.90665 3.87176 5.48169 4.38672 6.00137L4.22592 6.33537C3.91352 6.98409 3.81008 7.70945 4.05344 8.39929C4.21032 8.84361 4.49664 9.22465 4.86576 9.51553C5.22416 9.79801 5.64832 9.98841 6.0924 10.0884C6.38168 10.1535 6.6764 10.1803 6.9692 10.1712C6.90088 10.5585 6.87104 10.9602 6.86912 11.3695L4.256 12.8787L6.27248 14.0091C6.43365 14.0994 6.58708 14.2029 6.7312 14.3186C8.39368 15.8112 9.3932 20.227 10.0801 22.3839C10.767 20.227 11.7665 15.8112 13.429 14.3186C13.5731 14.2029 13.7266 14.0994 13.8878 14.0091L15.9042 12.8787L13.291 11.3695C13.2891 10.9602 13.2593 10.5585 13.191 10.1712C13.4838 10.1803 13.7785 10.1535 14.0678 10.0884C14.5118 9.98841 14.9361 9.79801 15.2944 9.51553C15.6634 9.22465 15.9498 8.84361 16.1066 8.39929C16.3501 7.70945 16.2466 6.98417 15.9342 6.33537L15.7734 6.00137L15.7734 6.00129Z"
        fill="#e0efbc" />
</svg>
    