<svg width="21" height="24" viewBox="0 0 21 24" fill="none" xmlns="http://www.w3.org/2000/svg">
    <path fill-rule="evenodd" clip-rule="evenodd"
        d="M13.1906 1.35709C14.6291 2.10186 15.806 2.73209 15.8057 2.75773C15.8051 2.82389 12.3533 4.56135 12.2308 4.55712C12.175 4.55526 11.7707 4.37029 11.3324 4.14613L10.5353 3.73863L9.66468 4.18339L8.79415 4.62823L7.36849 3.99153C5.22031 3.03211 4.99719 2.92697 5.03217 2.89165C5.07857 2.84479 5.84908 2.43338 7.93953 1.33954C8.94981 0.810875 9.93038 0.292535 10.1186 0.18765C10.3068 0.0827638 10.4865 -0.0016099 10.5179 2.33167e-05C10.5493 0.00165654 11.7521 0.612342 13.1906 1.35709ZM19.4998 4.60432L20.9973 5.37309V8.7471C20.9973 10.6028 20.9776 12.1211 20.9535 12.1211C20.9295 12.1211 20.1927 11.8037 19.3163 11.4157L17.7229 10.7103V7.15388L16.9442 7.57553C16.3442 7.90015 15.7438 8.2241 15.143 8.5474L14.1205 9.09763L13.6655 8.89315C13.3802 8.7647 13.0954 8.635 12.8112 8.50405C12.5916 8.40241 12.0525 8.16108 11.6133 7.96767C11.174 7.77417 10.7674 7.5796 10.7098 7.53525C10.6332 7.47634 11.5671 6.9634 14.1641 5.63795C16.1216 4.63883 17.786 3.82455 17.8628 3.82845C17.9395 3.83236 18.6762 4.18145 19.4998 4.60432ZM4.76229 4.8202C5.78215 5.27781 6.61731 5.6705 6.61826 5.6929C6.61915 5.71526 6.06329 6.04376 5.38293 6.42278C4.70263 6.80188 4.14599 7.13232 4.14599 7.1572C4.14599 7.18203 4.748 7.47194 5.4837 7.80158C6.21951 8.13113 8.07929 8.96589 9.61666 9.65663L14.7679 11.9709C16.0637 12.5531 17.2317 13.0778 17.3635 13.1372C20.0102 14.328 20.7377 14.6584 20.8376 14.7152C20.938 14.7723 20.9608 15.104 20.9787 16.7692L21 18.7552L19.6609 19.4333L18.3218 20.1114L16.465 19.2785C15.4437 18.8205 14.6082 18.4217 14.6082 18.3923C14.6082 18.363 14.7969 18.2408 15.0274 18.1206C15.2581 18.0004 15.7343 17.7344 16.0857 17.5292C16.437 17.3241 16.7874 17.1359 16.8643 17.1109C16.9412 17.086 17.003 17.0425 17.0018 17.0141C17.0005 16.9858 16.1828 16.5997 15.1849 16.1562C13.2465 15.2948 11.7631 14.6309 8.57844 13.1996C7.15438 12.5596 5.73014 11.9201 4.30572 11.2809C3.05385 10.7193 1.59833 10.0634 1.07122 9.82336L0.112849 9.3869L0.091542 7.37829L0.0701247 5.36977L1.4283 4.6769C2.17533 4.29586 2.81386 3.98502 2.84733 3.98616C2.88078 3.98721 3.74251 4.36249 4.76229 4.8202ZM0.476728 12.0665C0.676869 12.1637 1.07219 12.3456 1.35522 12.4707C1.63825 12.5959 2.17533 12.8367 2.54871 13.0061L3.22756 13.3138L3.24305 15.0772C3.2516 16.047 3.28753 16.8362 3.3229 16.8311C3.40325 16.8192 4.67556 16.1707 5.9545 15.4895C6.87758 14.998 6.93557 14.9785 7.15247 15.0852C7.27786 15.147 8.02737 15.4811 8.81802 15.8278C9.60869 16.1744 10.2814 16.4807 10.313 16.5085C10.3446 16.5361 8.75327 17.3934 6.7767 18.4135L3.18305 20.2682L1.64791 19.4789C0.803677 19.0449 0.0857772 18.649 0.0527175 18.5992C-0.0217016 18.4872 -0.0153237 11.8745 0.0591789 11.8834C0.0886458 11.8869 0.276588 11.9693 0.476728 12.0665ZM8.97775 19.8282C9.24403 19.942 9.51025 20.0559 9.77639 20.17C10.5801 20.5156 10.4226 20.5271 11.3787 20.054C12.0155 19.7389 12.29 19.6417 12.4092 19.6889C12.4986 19.7243 13.2677 20.0682 14.1186 20.4532C14.9694 20.8381 15.695 21.1531 15.7311 21.1531C16.0881 21.1531 15.4947 21.5055 13.2046 22.6536L10.519 24L9.38897 23.4455C8.76747 23.1406 7.51393 22.5299 6.60324 22.0885C5.69264 21.6469 4.95884 21.2743 4.97257 21.2602C4.98641 21.2462 5.74943 20.8568 6.66825 20.3948L8.33883 19.555L8.97775 19.8282Z"
        fill="#e0efbc" />
</svg>
    