<svg width="200" height="200" viewBox="0 0 200 200" fill="none" preserveAspectRatio="none"
    xmlns="http://www.w3.org/2000/svg">
    <path fill="#193905"
        d="M7.12468 176.847C7.37914 179.31 6.87023 179.803 6.61578 180.788C6.10687 180.296 5.72519 178.818 5.72519 176.847H7.12468ZM82.0611 185.714C81.9338 185.714 81.9338 187.192 82.3155 188.177C82.6972 187.685 83.0789 186.7 83.4606 186.207V184.236C82.9517 183.251 82.57 184.729 82.0611 185.714ZM76.4631 184.729C75.9542 185.222 75.5725 186.207 75.5725 188.67C75.9542 188.177 76.2086 187.685 76.5903 187.192V186.7C76.7176 185.714 76.7176 185.222 76.4631 184.729ZM58.9058 186.7C58.9058 187.192 58.7786 188.177 59.1603 189.163C59.542 188.67 59.9237 187.685 60.5598 186.7C59.7964 186.207 59.4148 185.714 58.9058 186.7ZM4.45293 173.892C4.3257 174.877 4.3257 175.369 4.45293 176.355H5.72519C5.34351 175.862 5.08906 173.399 4.45293 173.892ZM53.5623 185.222C53.4351 186.207 53.4351 186.7 53.6896 187.685C54.1985 187.685 54.3257 186.7 54.7074 184.236C54.1985 185.222 53.944 184.236 53.5623 185.222ZM21.374 195.074C21.7557 196.059 22.1374 196.059 22.5191 195.074C22.1374 194.089 21.7557 194.581 21.374 195.074ZM54.3257 191.133V193.103L55.0891 191.626C54.7074 190.148 54.5802 190.148 54.3257 191.133ZM8.1425 166.995C8.01527 166.995 7.88804 166.995 7.37914 167.488L8.39695 169.458C8.39695 168.966 8.39695 167.98 8.1425 166.995ZM87.7863 187.192C88.1679 188.177 88.5496 188.177 88.9313 187.192C88.5496 185.714 88.1679 185.714 87.7863 187.192ZM5.85242 187.192C6.36132 187.685 6.36132 187.685 6.36132 184.236C6.10687 185.714 5.97964 186.207 5.85242 187.192ZM87.0229 182.759C87.2773 183.744 87.5318 183.744 87.7863 182.759C87.5318 181.773 87.2773 181.773 87.0229 182.759ZM5.21629 182.266C5.08906 183.251 5.08906 183.744 5.34351 184.729C5.47074 183.744 5.59796 182.759 5.21629 182.266ZM63.1043 187.685C63.3588 186.7 63.2316 186.207 63.1043 185.222C62.7226 186.207 62.7226 186.7 63.1043 187.685ZM4.19847 180.788C4.3257 179.803 4.3257 179.31 4.07125 178.325C3.94402 179.31 3.8168 180.296 4.19847 180.788ZM24.5547 187.685C24.3003 188.67 24.3003 189.655 24.5547 190.64C24.8092 189.655 24.8092 188.67 24.5547 187.685ZM25.0636 189.655C25.3181 190.64 25.5725 191.133 25.6997 189.163C25.4453 189.163 25.3181 188.67 25.0636 189.655ZM22.9008 194.089C23.1552 195.074 23.4097 195.567 23.5369 193.596C23.2824 193.103 23.1552 192.611 22.9008 194.089ZM55.2163 193.103C54.9618 193.103 54.9618 194.581 55.2163 195.567C55.3435 195.074 55.4707 195.074 55.4707 195.074C55.2163 194.581 55.598 193.103 55.2163 193.103ZM3.56234 151.724C3.43512 151.724 3.30789 152.217 3.30789 152.709C3.43511 153.202 3.56234 153.202 3.56234 151.724ZM12.341 151.724C12.2137 152.217 12.2137 152.709 12.341 153.202C12.5954 152.709 12.5954 152.217 12.341 151.724ZM13.9949 152.709C13.8677 152.217 13.7405 152.217 13.6132 152.709C13.7405 153.202 13.8677 153.202 13.9949 152.709ZM2.92621 154.187C3.18066 154.68 3.30789 154.187 3.18066 153.202C3.05344 153.202 3.05344 153.202 2.92621 154.187ZM17.0483 156.158C16.9211 156.65 16.9211 157.143 17.0483 157.635C17.1756 156.65 17.1756 156.158 17.0483 156.158ZM10.0509 162.069C9.92367 161.576 9.79644 161.576 9.66921 162.069C9.79644 162.562 9.92367 162.562 10.0509 162.069ZM96.3104 181.281C96.4377 181.773 96.5649 181.773 96.6921 181.281C96.5649 180.788 96.4377 180.788 96.3104 181.281ZM17.6845 184.729C17.5573 185.222 17.5573 185.714 17.6845 186.207C17.9389 185.714 17.9389 185.222 17.6845 184.729ZM18.9567 185.714C19.084 186.207 19.2112 186.207 19.3384 185.714C19.2112 184.729 19.084 184.729 18.9567 185.714ZM55.4707 187.685C55.598 187.192 55.598 186.7 55.4707 186.207C55.3435 186.7 55.3435 187.192 55.4707 187.685ZM58.1425 186.207C58.1425 186.7 58.1425 187.192 58.3969 187.192L58.5242 186.7C58.5242 186.7 58.3969 186.207 58.1425 186.207ZM85.8779 186.207C85.7506 186.7 85.7506 187.192 85.8779 187.685C86.0051 187.192 86.0051 186.7 85.8779 186.207ZM89.9491 187.192C90.0763 187.685 90.2036 187.685 90.3308 187.192C90.2036 186.207 90.0763 186.207 89.9491 187.192ZM78.3715 187.685C78.2443 188.177 78.2443 188.67 78.3715 189.163C78.4987 188.67 78.4987 188.177 78.3715 187.685ZM11.1959 189.655C11.3232 190.148 11.4504 190.148 11.5776 189.655C11.3232 189.163 11.1959 189.163 11.1959 189.655ZM90.9669 189.655C91.0941 190.148 91.2214 190.148 91.3486 189.655C91.2214 189.163 91.0941 189.163 90.9669 189.655ZM65.5216 190.64C65.3944 191.133 65.3944 191.626 65.5216 192.118C65.6489 191.133 65.6489 191.133 65.5216 190.64ZM72.6463 190.64C72.5191 190.64 72.5191 190.64 72.6463 190.64C72.5191 191.626 72.6463 192.118 72.9008 191.626C72.7735 191.133 72.7735 190.64 72.6463 190.64ZM77.3537 190.64C77.2265 190.64 77.0992 191.133 77.0992 191.626C77.2265 192.118 77.3537 191.626 77.3537 190.64ZM55.598 192.118C55.4707 192.118 55.3435 192.611 55.3435 193.103C55.4707 193.103 55.598 193.103 55.598 192.118ZM72.7735 191.626C72.7735 192.118 72.7735 192.611 73.028 192.611L73.1552 192.118C73.028 192.118 73.028 191.626 72.7735 191.626ZM76.7176 192.611C76.972 193.103 77.0992 192.611 76.972 191.626L76.7176 192.611ZM93.6387 191.626C93.5115 192.118 93.5115 192.611 93.6387 193.103C93.7659 192.611 93.7659 192.118 93.6387 191.626ZM70.4835 194.581C70.3562 195.074 70.3562 195.567 70.4835 196.059C70.6107 195.567 70.6107 195.074 70.4835 194.581ZM79.0076 198.522C78.8804 199.015 78.8804 199.507 79.0076 200C79.2621 199.507 79.2621 199.015 79.0076 198.522ZM170.102 8.37441L171.628 5.41875C172.137 7.38919 172.774 7.38918 173.282 8.37441C173.791 9.35963 174.173 13.3005 175.064 10.8375C174.936 9.85224 174.682 10.3448 174.555 9.85222C174.427 9.35961 174.046 8.86703 174.046 7.8818C174.173 7.38919 174.3 6.89657 174.3 6.40396C173.791 4.92612 173.155 4.92613 172.774 3.4483H170.102C170.229 4.43352 170.356 4.92614 170.356 5.41875C170.102 5.91136 169.975 5.91135 169.72 6.40396C169.72 6.89657 169.72 7.8818 170.102 8.37441ZM178.753 15.271H179.898C180.025 13.7931 180.662 13.7931 180.28 11.3301C179.389 12.8079 178.753 9.85222 177.99 9.85222C177.735 12.8079 179.135 12.3153 178.753 15.271ZM198.092 95.0739C197.71 93.5961 197.455 97.5369 196.819 96.0591C196.819 95.5665 196.947 93.5961 196.31 94.0887C196.183 95.0739 195.929 96.5517 195.802 97.537L196.31 99.5074H197.201C197.583 97.537 197.837 96.5517 198.092 95.0739ZM196.565 75.8621C196.31 72.9064 195.674 73.399 195.165 71.9212V75.3695C195.42 76.3547 195.802 77.3399 196.056 78.8177C196.183 77.3399 196.565 77.3399 196.565 75.8621ZM199.618 105.419C199.491 105.419 199.491 104.926 199.364 104.926C198.728 104.926 198.982 100.985 198.346 100.493V105.911C198.982 105.911 199.109 107.882 199.618 108.867V105.419ZM175.573 167.98L174.682 171.429C175.191 172.414 175.827 170.443 176.845 168.966C176.081 168.966 175.827 166.502 175.573 167.98ZM186.387 103.448C186.132 103.941 186.132 104.926 186.132 105.419C186.768 106.404 187.405 108.374 188.422 108.867C187.786 105.911 187.277 103.941 186.387 103.448ZM193.639 133.005C193.511 134.975 193.893 135.961 194.275 136.946C194.784 135.961 195.165 134.975 194.911 132.512C194.529 132.512 194.148 132.02 193.639 133.005ZM168.066 13.7931C168.193 13.3005 168.321 12.3153 168.448 12.3153C168.702 11.8227 168.957 12.8079 169.211 11.8227C168.83 9.35961 168.83 9.35964 168.321 7.8818C168.575 10.3449 167.812 10.8375 168.066 13.7931ZM197.074 82.7586C196.947 83.2512 196.692 83.7439 196.565 84.2365C196.183 84.7291 196.056 81.2808 195.42 83.2512C195.929 85.2217 196.438 86.2069 197.074 86.6995C197.328 85.7143 197.328 84.2365 197.074 82.7586ZM120.229 174.384C120.229 178.818 121.12 178.325 121.501 180.296C121.756 179.31 121.883 178.325 122.01 177.34C121.501 175.862 120.738 177.833 120.229 174.384ZM193.003 60.5911C193.003 61.0838 193.003 61.5764 193.13 62.069H194.02C193.893 60.5912 194.402 58.6207 193.639 58.1281C193.766 60.0985 192.875 58.6207 193.003 60.5911ZM172.265 171.921C172.392 172.414 172.646 172.906 172.901 172.414C173.028 170.936 173.028 169.951 172.774 168.473C172.519 169.458 172.137 169.951 172.265 171.921ZM164.377 15.271C164.758 14.7784 165.013 13.7931 165.394 13.3005L164.885 11.3301C164.631 12.3153 164.249 13.3005 164.377 15.271ZM190.076 105.419C190.585 107.389 190.585 107.389 191.094 105.419C190.84 104.434 190.458 104.434 190.076 105.419ZM179.389 166.01C179.644 166.502 180.025 167.488 180.534 168.473C180.407 166.995 180.407 166.502 180.407 165.025C180.025 166.01 179.644 165.025 179.389 166.01ZM180.916 133.005C180.407 132.02 180.153 132.02 179.771 133.005C180.153 133.99 180.407 133.99 180.916 133.005ZM177.099 166.995C177.226 167.98 177.226 168.966 177.354 169.951C177.608 167.488 177.481 166.01 177.099 166.995ZM173.41 175.862C173.664 175.369 173.919 175.369 174.173 174.877C173.41 173.892 173.155 174.384 173.41 175.862ZM111.578 5.41875H111.069L111.45 8.37441C111.705 7.38918 111.705 6.40397 111.578 5.41875ZM193.766 103.448C193.511 104.433 193.639 104.926 193.766 105.911C194.02 104.926 194.148 104.433 193.766 103.448ZM199.364 114.286C199.618 114.778 199.746 114.778 200 113.793C199.873 113.793 199.491 112.315 199.364 114.286ZM132.188 2.46305C132.316 1.97044 132.697 3.44828 132.697 1.97045C132.697 0.985229 132.316 0.985229 132.061 1.97045L132.188 2.46305ZM179.262 118.719C179.389 117.734 179.389 117.241 179.135 115.764C179.008 117.241 178.88 117.734 179.262 118.719ZM196.438 58.1281C196.183 57.6355 196.056 57.6355 195.674 58.6207C196.056 59.6059 196.31 60.0985 196.438 58.1281ZM180.789 127.586C180.534 126.601 180.407 127.094 180.153 127.586C180.407 128.571 180.662 129.064 180.789 127.586ZM191.476 36.4532C191.221 35.468 191.094 35.9606 190.84 36.4532C191.094 37.4384 191.349 37.931 191.476 36.4532ZM196.819 127.586C197.074 128.571 197.328 128.571 197.583 127.586C197.328 126.601 197.074 126.601 196.819 127.586ZM180.916 130.542C181.17 131.034 181.298 131.034 181.552 130.049C181.298 130.542 181.043 128.571 180.916 130.542ZM196.31 66.5025C196.183 67.4877 196.183 67.9803 196.438 68.9655C196.31 67.9803 196.819 66.9951 196.31 66.5025ZM195.293 38.4237C195.42 38.4237 195.547 37.9311 195.547 37.4385C195.929 37.4385 196.056 37.931 196.183 36.4532C195.929 35.468 195.674 35.468 195.293 37.4385C195.165 37.4385 195.165 37.4384 195.293 38.4237C195.165 38.4237 195.165 37.931 195.293 38.4237ZM186.005 157.635C185.878 157.635 185.751 158.128 185.751 158.621C186.005 158.621 186.132 158.621 186.005 157.635ZM185.496 159.606C185.751 160.099 185.878 159.606 185.751 158.621C185.623 158.621 185.496 159.113 185.496 159.606ZM186.387 128.079C186.514 127.586 186.514 127.094 186.387 126.601C186.132 127.586 186.132 128.079 186.387 128.079ZM177.99 127.586C178.117 128.079 178.244 128.079 178.371 127.586C178.244 127.094 178.117 127.094 177.99 127.586ZM188.295 31.0345C188.422 31.5271 188.55 31.5271 188.677 31.0345C188.55 30.5419 188.422 30.5419 188.295 31.0345ZM194.529 75.8621C194.656 75.3695 194.656 74.8769 194.529 74.3843C194.402 74.8769 194.402 75.3695 194.529 75.8621ZM153.944 169.951C153.817 170.443 153.817 170.936 153.944 171.429C154.071 170.443 154.071 169.951 153.944 169.951ZM179.517 170.936C179.389 171.429 179.389 171.921 179.517 172.414C179.771 171.921 179.771 171.429 179.517 170.936ZM198.092 122.66C197.964 123.153 197.964 123.645 198.092 124.138C198.346 123.645 198.346 123.153 198.092 122.66ZM135.242 173.892C135.242 174.384 135.242 174.877 135.496 174.877L135.623 174.384C135.496 173.892 135.369 173.892 135.242 173.892ZM178.499 121.182C178.372 121.675 178.372 122.167 178.499 122.66C178.626 122.167 178.626 121.675 178.499 121.182ZM176.59 14.2857C176.463 13.7931 176.336 13.7931 176.209 14.2857C176.336 15.2709 176.463 15.2709 176.59 14.2857ZM134.478 177.34C134.606 177.833 134.733 177.833 134.86 177.34C134.733 176.847 134.606 176.847 134.478 177.34ZM175.954 118.719C175.827 119.212 175.827 119.704 175.954 120.197C176.209 119.704 176.209 119.212 175.954 118.719ZM127.481 177.833C127.354 178.325 127.354 178.818 127.481 179.31C127.735 178.818 127.735 178.325 127.481 177.833ZM109.924 182.266C110.178 182.266 110.305 181.773 110.305 180.788C110.051 180.788 109.924 181.281 109.924 182.266ZM175.827 114.286C175.827 114.778 175.827 115.271 176.081 115.271L176.209 114.778C176.081 114.778 175.954 114.286 175.827 114.286ZM178.499 108.867C178.372 109.36 178.372 109.852 178.499 110.345C178.626 109.852 178.626 109.36 178.499 108.867ZM109.542 182.759C109.542 183.251 109.669 183.251 109.542 182.759C109.796 183.251 109.924 182.759 109.796 181.773C109.669 182.266 109.542 182.266 109.542 182.759ZM164.377 7.38916C164.249 6.89655 164.122 6.89655 163.995 7.38916C164.249 8.37438 164.249 8.37438 164.377 7.38916ZM193.639 58.1281C193.639 57.6355 193.639 57.1429 193.384 57.1429L193.257 57.6355C193.384 57.6355 193.511 58.1281 193.639 58.1281ZM198.092 99.5074C197.964 100.493 198.092 100.985 198.346 100.493C198.346 100 198.219 99.5074 198.092 99.5074ZM195.293 98.0296C195.165 98.5222 195.165 99.0148 195.293 99.5074C195.42 99.0148 195.42 98.5222 195.293 98.0296ZM146.819 1.47785C146.947 0.985237 146.947 0.492611 146.819 0C146.565 0.492611 146.565 0.985237 146.819 1.47785ZM197.583 57.1429C197.455 56.6503 197.328 56.6503 197.201 57.1429C197.328 57.6355 197.455 57.6355 197.583 57.1429ZM194.275 63.0542C194.275 63.5468 194.402 63.0542 194.275 63.0542C194.402 62.069 194.275 61.5764 194.02 62.069C194.02 62.5616 194.02 63.0542 194.275 63.0542ZM195.42 88.67C195.293 91.133 194.529 90.6404 194.275 92.1182C194.402 95.0739 195.038 93.1035 195.293 94.5813C195.293 95.5665 195.038 96.0591 194.911 96.5518C194.402 97.537 194.02 96.0591 193.639 95.0739C193.639 94.0887 193.511 93.5961 193.257 93.5961C193.257 94.5813 193.384 95.0739 193.639 95.0739C193.639 96.5517 193.639 97.5369 194.02 98.5222C193.511 100 193.13 99.5074 192.875 98.0296C192.621 99.5074 191.603 98.5222 191.985 101.97C191.221 100.985 191.349 98.0296 190.458 96.5518H189.44C189.44 98.0296 189.567 99.5074 189.313 100.493L188.55 97.537C187.913 97.537 187.786 100.985 187.15 100C186.768 98.5222 187.15 97.537 187.405 96.5518L186.896 94.5813H185.623C185.623 96.0591 185.623 98.0296 185.496 99.5074C185.242 101.478 184.733 101.97 184.224 101.478C183.842 100 184.224 98.0296 183.969 96.5518C183.715 95.5665 183.333 96.5517 183.206 95.0739C182.061 95.5665 181.679 100.493 180.662 100.985C181.425 105.419 181.425 105.419 182.188 105.911L181.425 108.867L181.679 109.852H180.916C180.407 108.867 180.407 105.911 179.771 104.434C179.644 105.419 179.517 106.404 179.389 106.897C178.626 107.882 178.372 105.419 177.863 105.419V100.985C177.608 100 177.481 100.493 177.354 100.493C176.972 101.97 177.735 101.97 177.608 102.956C177.608 104.926 177.226 105.419 176.972 105.911C176.718 105.911 176.59 105.419 176.336 104.434C175.954 105.911 175.573 107.882 175.191 109.36C175.318 109.852 175.573 109.36 175.7 109.852C175.954 110.837 175.827 112.315 175.827 113.793C175.191 113.793 174.427 113.793 173.919 115.764C173.791 114.286 173.664 113.793 173.664 112.808C173.41 112.315 173.41 113.793 173.155 113.793C172.774 114.286 172.774 112.315 172.392 112.808C172.265 114.778 172.137 116.256 172.646 117.241C172.01 118.227 171.501 119.704 170.865 119.704C171.12 122.168 171.12 122.168 171.756 122.168C172.01 122.66 171.756 124.631 172.265 124.631C172.774 123.645 173.282 122.168 173.282 119.212H174.046C174.173 119.704 174.3 120.197 174.173 120.69C174.173 123.645 173.537 125.616 173.41 128.571C173.155 128.571 172.901 128.571 172.519 129.064L171.883 131.527C171.374 130.542 171.883 128.571 171.501 127.586C170.992 127.094 170.865 128.571 170.483 130.542C171.12 132.02 171.756 133.99 172.265 135.961C173.282 133.005 173.282 133.005 174.173 133.498L173.791 134.975C174.427 136.946 174.936 132.512 175.445 134.483C175.445 134.975 175.573 135.961 175.7 136.946C176.081 135.468 176.59 135.961 176.845 134.483C176.972 134.975 177.099 135.468 177.354 135.961C178.244 132.02 179.135 136.453 180.025 135.468C181.043 134.483 181.807 137.931 182.57 138.424C183.333 138.424 183.333 136.453 183.842 135.468C184.351 135.961 184.86 137.438 185.369 138.424C186.387 137.931 187.023 133.99 188.168 135.961C188.295 136.946 188.422 138.424 188.677 139.409C188.677 141.379 188.168 140.394 188.041 141.379C188.041 142.365 187.913 143.35 188.168 144.828C189.44 142.857 189.822 137.931 190.585 134.483C191.603 135.468 192.494 136.946 193.257 138.916C193.003 141.872 192.366 140.887 191.73 140.887C191.349 141.872 191.094 143.35 191.221 145.813C190.458 145.813 189.822 147.291 189.059 148.768C188.677 148.276 188.295 146.798 187.786 147.291C187.659 148.768 187.405 150.739 187.15 152.217C186.514 154.187 185.623 153.695 184.86 153.695C184.606 155.172 184.733 157.143 184.733 158.621C184.606 159.606 184.351 159.113 184.097 159.606C183.969 160.099 183.969 160.591 183.715 160.591C183.206 158.621 184.224 157.635 183.842 155.665C183.079 155.172 182.443 157.143 181.807 159.113L182.57 162.069C182.061 162.069 181.807 164.532 181.298 164.039C180.789 162.562 182.061 162.562 181.552 161.084C181.425 160.099 181.298 159.606 181.043 159.606C180.407 159.113 180.153 161.576 179.771 162.562C179.389 163.054 179.389 161.084 179.262 161.084C178.626 161.576 178.371 162.069 178.244 163.547C178.499 164.039 178.626 164.039 179.008 164.532L178.499 166.502C177.99 166.502 177.863 166.01 177.863 164.532C177.481 164.039 177.099 163.054 176.845 162.562C176.463 162.069 176.463 164.039 175.954 164.039C175.7 162.562 175.318 160.099 174.555 160.099C173.919 159.606 173.282 160.099 172.774 162.562H173.41V164.532C173.155 165.517 173.028 165.517 172.774 164.532V162.069C171.883 162.069 171.12 162.069 170.229 163.054C169.466 164.039 168.83 166.01 168.193 167.98C167.812 168.966 167.557 168.966 167.176 168.966C166.921 169.951 166.921 171.921 166.539 172.906C166.031 170.936 165.267 172.414 164.631 171.921C164.122 168.966 163.232 169.458 162.595 167.488L162.214 168.966C162.087 168.473 161.959 167.488 161.45 167.98C161.323 168.473 161.196 169.458 161.069 170.936C160.56 169.951 160.178 167.98 159.796 170.936C159.415 170.443 159.542 169.458 159.542 168.473C158.779 167.98 158.142 166.01 157.252 166.995L156.743 168.966C156.87 169.951 157.252 170.443 157.125 171.921C156.997 172.414 156.87 172.414 156.616 172.414C156.107 171.429 156.616 169.951 156.234 168.473C155.725 169.951 155.089 169.458 154.453 169.458C154.198 167.98 154.198 166.01 153.562 165.025C152.926 167.98 151.654 166.995 150.891 170.936C149.873 168.966 149.237 168.966 148.219 170.936C147.71 170.936 148.092 168.966 147.837 168.473C147.71 167.98 147.455 167.488 147.455 166.995C146.819 166.995 146.692 168.966 146.438 169.951C146.183 168.473 145.802 168.473 145.293 168.966C145.038 169.951 145.165 172.414 144.529 172.414C144.02 170.936 143.639 172.906 143.13 174.384C142.875 172.906 142.366 172.414 142.112 173.399C141.349 175.369 140.84 174.877 140.076 173.399C139.44 172.414 138.55 173.399 137.913 171.921C137.532 170.936 137.405 173.399 136.896 173.399C136.641 172.414 136.26 171.429 136.005 170.443C135.623 171.429 135.242 171.921 135.242 173.399C134.86 173.892 134.86 171.429 134.224 172.414C134.097 172.906 133.842 173.399 133.715 175.369C133.715 176.355 133.333 177.34 133.333 178.818C132.952 177.833 132.697 177.34 132.697 175.369C132.697 173.399 133.206 174.877 133.333 173.892C133.079 171.921 132.697 173.399 132.443 173.399C132.188 173.892 132.443 175.862 131.807 175.862C131.807 175.862 131.552 175.862 131.552 174.384C131.552 172.906 132.316 172.414 131.679 169.951C130.916 170.443 130.662 173.892 129.898 175.369C129.644 175.369 129.517 173.892 129.262 172.906C128.753 171.921 128.244 173.399 127.863 174.384C127.226 170.443 127.226 170.443 126.336 169.951C125.954 170.936 126.336 172.414 126.081 173.892C125.7 173.892 125.573 172.414 125.318 171.429C124.809 170.443 124.427 171.921 124.046 172.414C123.664 172.906 123.537 170.936 123.282 170.936C123.028 170.936 122.901 171.921 122.774 172.414C122.646 171.921 122.519 171.429 122.265 170.936C121.756 170.443 121.501 172.906 120.865 171.429C120.483 170.443 119.847 171.429 119.338 171.429C118.575 170.936 117.684 171.429 117.048 172.906C116.158 174.877 115.522 173.892 114.758 171.429C114.122 172.906 113.232 172.906 112.468 175.369H110.687C110.56 176.355 110.814 176.355 110.814 176.847V178.325C110.56 179.31 110.305 178.818 110.178 178.818V175.369C109.796 173.892 109.796 176.355 109.542 175.862C109.288 175.862 109.16 174.877 108.906 174.384L108.651 175.369C108.015 174.384 107.252 173.399 106.616 175.369C106.107 176.847 105.471 175.369 104.835 177.34C104.453 178.818 103.562 176.847 103.181 175.862C102.545 174.384 102.163 175.369 101.654 176.355C101.399 176.847 101.272 175.862 101.018 175.369C100.763 174.877 100.763 176.847 100.382 176.847C100.127 176.847 99.8728 176.355 99.7455 177.34C100.127 177.833 100.509 178.818 100.763 180.296C99.8728 182.266 99.3639 178.818 98.6005 178.325C98.2188 178.325 98.0916 179.803 97.8371 180.788C97.4555 180.788 97.3282 178.818 96.9466 179.803C96.6921 177.833 96.9466 174.877 96.056 174.384C94.9109 177.34 93.3842 179.31 91.9847 179.803C91.6031 179.31 91.8575 177.34 91.4758 176.847C91.0941 176.847 90.9669 176.847 90.458 181.281C90.2036 179.803 90.0763 178.818 89.9491 177.833C89.0585 178.325 88.5496 180.788 87.659 178.818C86.8957 176.847 86.1323 179.803 85.2417 180.296C85.1145 180.296 84.9873 180.788 84.7328 180.788C84.6056 180.296 84.4784 179.803 84.3512 179.803C83.9695 180.788 83.4606 181.281 83.0789 182.266C83.0789 180.788 82.8244 180.788 82.57 180.788H80.4071C79.5165 181.281 78.626 179.31 77.7354 178.325C77.2265 179.31 76.5903 180.296 75.9542 181.773C75.6997 180.296 75.1908 179.803 74.8092 181.281C74.5547 182.266 74.3003 182.266 74.0458 182.266C74.0458 183.251 73.9186 183.251 73.7914 183.744C73.2824 184.729 73.028 182.266 72.5191 182.266C72.1374 182.759 72.2646 183.744 72.2646 184.729H70.4835C70.4835 183.251 71.5013 184.236 70.9924 181.281H69.3384C69.2112 181.773 69.3384 182.759 69.2112 183.251C68.9567 184.236 68.7023 183.744 68.4478 182.759C68.0662 182.759 67.9389 184.236 67.6845 185.222H66.1578C65.9033 184.236 66.0305 183.251 66.0305 182.759C65.5216 182.266 65.3944 183.744 64.8855 184.236C64.5038 183.744 63.9949 182.759 64.2494 179.803C63.8677 180.788 63.7405 181.281 63.6132 181.773C62.9771 181.281 62.4682 178.325 61.5776 178.818C61.5776 181.281 60.687 181.281 60.687 183.744C60.3053 184.729 60.3053 182.266 60.0509 182.759C59.7964 183.251 59.6692 181.773 59.542 181.281L59.1603 182.759C59.0331 181.773 59.0331 181.281 58.9058 180.296C58.5242 179.803 58.1425 179.803 57.7608 181.281C57.3791 182.759 57.6336 184.236 57.5064 185.714C56.9975 185.714 56.9975 183.744 56.6158 183.251C56.4886 184.236 56.1069 184.729 56.1069 185.714C55.9796 187.685 56.743 186.207 56.743 187.685C56.4886 188.67 56.2341 188.177 55.9796 188.177C55.598 187.685 55.8524 185.222 55.4707 184.729C55.4707 183.744 55.9796 182.759 55.7252 181.281C55.4707 180.788 55.4707 182.266 55.2163 182.266C54.5801 182.759 54.5802 179.803 54.0712 179.31C53.5623 179.31 53.5623 181.281 53.1807 181.773C52.2901 181.281 51.3995 183.251 50.5089 183.744C50.2545 184.236 50.5089 187.192 49.7455 186.207C49.4911 185.714 49.7455 184.729 49.6183 183.744H47.9644C47.7099 185.714 47.9644 186.7 48.3461 187.685C47.3282 188.177 47.0738 184.729 46.4377 183.744H45.0382C44.7837 186.7 43.8931 186.207 43.257 187.685C43.1298 186.7 42.8753 186.207 42.4936 186.207C42.112 185.222 42.4936 183.744 42.2392 182.266H41.8575C41.6031 183.251 41.2214 183.744 41.3486 185.714C41.4758 187.685 40.9669 187.685 40.8397 189.163C40.5852 188.67 40.7125 187.685 40.5852 186.7C40.2036 185.714 39.8219 186.7 39.313 186.207C39.1858 184.729 38.9313 182.759 38.5496 182.266C37.9135 183.251 38.2952 185.714 37.7863 186.207C37.659 187.685 38.0407 188.177 38.0407 189.163C37.9135 189.655 37.9135 189.655 36.6412 189.163C36.6412 188.177 36.6412 187.192 36.514 185.714C36.0051 185.222 35.7506 183.251 35.1145 183.744C35.2417 185.714 34.9873 186.7 34.6056 187.685H33.2061C33.5878 185.714 34.2239 186.7 34.2239 183.744C34.0967 183.251 33.715 183.251 33.4606 182.266C33.2061 181.281 33.4606 179.31 33.2061 178.325C32.8244 177.833 32.57 177.34 32.1883 178.818C32.0611 181.281 32.6972 181.773 32.8244 183.251C31.8066 185.222 31.8066 185.222 31.2977 189.163C30.916 190.148 30.4071 189.163 30.0254 189.655C30.0254 188.177 30.5343 187.685 30.2799 185.714C29.771 184.729 29.2621 185.222 28.7532 186.7C28.4987 186.207 28.626 185.222 28.626 184.236H28.3715C27.9898 184.236 28.2443 181.773 27.8626 181.773C27.7354 182.266 27.7354 183.251 27.6081 184.236C27.2265 184.236 27.0992 182.759 26.7176 181.773C26.4631 183.251 26.0814 184.729 25.9542 185.714C24.9364 186.7 24.3003 182.759 23.5369 185.714C23.2824 184.236 23.6641 181.281 22.7735 180.788L22.5191 181.773C22.2646 181.281 22.5191 179.31 22.0102 178.818C21.2468 178.818 21.2468 181.773 21.1196 184.729C20.4835 183.744 19.7201 182.266 18.9567 183.251C18.8295 182.266 18.5751 180.788 18.4478 180.296H17.43C17.1756 180.788 17.3028 181.773 17.1756 182.759C16.1578 181.281 15.14 179.31 14.5038 175.369C13.8677 176.847 14.1221 179.803 13.7405 181.281C13.486 182.266 13.8677 185.222 13.1043 186.7H11.7048C11.7048 184.729 12.0865 183.744 12.5954 184.236C12.341 182.759 12.2137 181.281 12.0865 179.803C11.0687 181.281 9.92367 180.296 9.16031 184.236C8.77863 183.251 9.16031 181.281 8.90585 180.296C8.39695 179.31 8.14249 182.266 7.63359 181.773C7.50636 183.251 8.26972 183.744 7.76081 185.222C7.50636 185.714 6.99746 183.251 6.743 180.296H6.10687C6.10687 178.818 6.36132 178.325 6.48855 177.833C6.87023 178.325 6.61578 179.803 6.743 180.296H7.25191C7.63359 179.31 7.37914 177.833 7.37914 176.355C7.12468 175.862 6.99746 175.862 6.61578 175.369C6.87023 174.384 7.12468 173.892 7.37914 173.399V166.995C8.1425 167.98 8.01527 163.547 8.52417 163.547C9.03308 164.039 8.6514 166.01 9.03308 166.502C9.66921 163.054 10.687 161.084 11.5776 158.128C12.5954 161.084 13.486 159.113 14.3766 156.65C14.7583 156.65 15.1399 159.113 15.6489 158.128C16.285 156.158 17.0483 156.65 17.6845 157.143C18.3206 157.143 18.9567 156.158 19.4656 155.172C20.3562 153.202 20.4835 152.217 20.9924 147.783C20.4835 146.798 19.8473 147.291 19.3384 147.291C19.2112 148.276 19.2112 149.261 19.084 149.754C18.7023 149.261 18.8295 148.276 18.8295 147.291H16.5394C16.285 147.783 16.0305 149.754 15.9033 151.232H15.5216C15.1399 150.246 15.5216 148.768 15.2672 147.291C14.7583 147.291 14.2494 146.305 13.8677 148.276C13.486 146.798 12.9771 145.813 12.7226 148.276C12.2137 148.769 12.2137 147.291 11.9593 147.291C10.687 149.754 9.28753 148.276 7.88804 148.768C7.37914 147.783 6.743 147.291 6.743 143.842C6.36132 149.261 5.21629 149.261 4.3257 151.724C3.8168 151.232 3.94402 148.276 3.43512 147.783C3.05344 147.291 2.67176 146.798 2.4173 148.768C1.65395 146.798 0.636132 147.291 0 143.842V123.153L0.508908 121.182C1.39949 122.66 1.39949 122.66 2.4173 122.66C2.92621 122.167 2.67176 119.212 3.18066 118.719C3.81679 118.227 3.43511 121.182 3.94402 121.675C4.58015 122.66 4.96183 119.704 5.47074 120.197C6.10687 120.69 6.61578 120.197 7.25191 120.197C7.88804 120.197 8.26972 117.734 9.03308 118.227C8.39695 117.734 7.88804 116.749 7.25191 115.764C7.12468 112.808 6.87023 110.345 6.48855 108.374C5.97964 107.389 5.59796 107.882 5.21629 107.882L4.70738 109.852C4.96183 110.837 5.21629 111.823 5.34351 112.808C4.58015 112.315 3.81679 112.808 3.18066 109.852C3.30789 109.36 3.43512 108.867 3.43512 108.374C2.92621 105.911 2.67176 109.852 2.29008 109.36C1.65395 108.374 1.01781 106.897 0.381681 105.911V99.0148C0.76336 93.5961 2.03562 92.1182 3.43512 91.133C3.81679 89.6552 4.19847 88.1773 4.58015 86.2069C4.45293 85.2217 4.19847 85.7143 4.07125 85.7143C3.81679 85.2217 3.94402 84.2365 3.94402 83.2512C3.30789 82.7586 3.18066 78.8177 2.29008 80.7882C2.03562 78.3251 1.65394 76.3547 1.39949 73.8916C2.03562 71.9212 1.65394 68.9655 1.9084 66.5025C2.03562 64.0394 2.79898 62.5616 2.79898 60.5911C2.79898 57.6355 3.43511 56.1577 3.81679 55.1724C4.45293 54.1872 4.58015 51.2315 5.34351 50.7389C5.34351 51.2315 5.34351 51.7241 5.47074 51.7241H5.85242C6.10687 50.7389 5.85242 49.2611 5.97964 48.2759C6.2341 46.798 6.87023 48.2759 6.87023 44.8276C7.37914 48.2759 8.26972 46.798 8.6514 48.7685C8.90585 47.7833 9.03308 47.2907 9.41476 47.2907C9.79644 46.3055 9.41476 44.8276 9.66921 43.3498C10.4326 41.8719 10.687 43.8424 11.0687 45.8128C11.7048 44.8276 11.8321 42.3645 12.5954 41.3793C12.9771 40.8867 12.9771 37.4385 13.7405 37.4385C13.7405 38.9163 13.3588 39.9015 13.486 41.3793C13.3588 41.8719 13.3588 42.3646 13.2316 42.8572C13.2316 42.3646 13.3588 41.8719 13.486 41.3793H14.3766C14.5038 38.9163 15.0127 37.4384 15.6489 36.4532L15.2672 34.9754C15.2672 32.5123 15.9033 32.0197 16.1578 30.0493C16.5394 30.0493 16.9211 29.5567 17.3028 30.5419C17.1756 31.0345 17.0483 32.0197 17.0483 32.5123C17.0483 33.9902 17.43 34.9754 17.6845 35.468C17.9389 35.468 18.0662 34.9754 18.3206 33.9902C18.5751 34.9754 18.7023 35.9606 18.9567 37.4385C19.2112 35.9606 19.4657 35.468 19.8473 35.468C20.229 32.5123 20.4835 29.5567 21.2468 27.5862C21.374 29.0641 21.5013 30.5419 22.0102 31.5271C22.2646 31.0345 22.0102 29.0641 22.6463 28.5714C22.9008 28.5714 23.1552 30.0493 23.1552 31.0345C23.1552 33.0049 23.5369 33.005 23.7913 34.9754C23.7913 32.0197 24.6819 32.0197 24.8092 30.5419C25.0636 28.0788 25.4453 27.0936 25.827 25.1232H27.2265C27.7354 23.1527 28.3715 21.6749 29.1349 20.6897C29.771 20.1971 30.5344 20.6897 30.7888 18.2266C31.8066 19.7045 32.8244 21.1823 33.8422 23.6453C33.8422 22.6601 33.9695 22.1675 33.9695 21.6749C34.3511 20.6897 34.3511 23.1527 34.6056 22.6601C34.8601 22.6601 34.9873 21.6749 35.1145 21.1823C35.369 22.6601 35.6234 22.6601 36.1323 22.6601C36.3868 21.6749 36.6412 20.6897 37.0229 19.7044C37.5318 22.1675 38.2952 21.6749 38.9313 21.1823C41.0942 19.7044 41.0941 19.7044 42.8753 21.1823H43.257C43.3842 20.1971 43.3842 19.7044 43.5115 18.7192C44.5293 20.6897 45.4198 19.7045 46.3104 17.734C46.1832 17.2414 46.056 16.7488 45.9288 15.7636H47.9644L48.6005 18.2266C49.1094 19.2118 49.4911 17.2414 50 16.7488C50.1272 17.734 50.3817 18.7192 50.5089 19.7044H51.7812C52.1628 18.7192 52.2901 17.2414 52.5445 15.7636C52.799 15.7636 53.0534 15.7635 53.1807 14.7783C53.5623 14.7783 53.6896 16.2562 53.944 17.2414C54.7074 18.2266 55.598 16.2562 56.2341 18.7192C56.4885 18.7192 56.6158 17.734 56.743 17.2414H59.0331C59.6692 17.2414 60.3053 15.271 61.0687 15.7636C61.5776 16.2562 62.0865 16.2562 62.5954 15.271C63.1043 14.2857 63.486 16.7488 63.9949 15.7636C64.7583 14.7783 65.5216 14.2857 66.285 13.3005C66.7939 12.8079 66.7939 12.8079 67.5573 13.7931C68.0662 11.8227 68.5751 11.8227 69.084 13.7931C69.7201 12.3153 70.4835 10.8375 71.2468 13.7931C71.5013 13.7931 71.6285 13.3005 72.0102 12.3153C72.7735 15.2709 73.7914 12.8079 74.6819 15.271C74.9364 16.2562 75.3181 14.2857 75.5725 14.2857C76.4631 14.2857 77.4809 13.3005 78.3715 15.271C78.626 15.7636 79.0076 15.7635 79.3893 14.7783C79.8982 13.3005 80.2799 13.7931 80.6616 15.7636C80.7888 14.7783 81.0433 13.7931 81.1705 12.8079H82.8244C83.3333 12.8079 83.8422 13.3005 84.3512 12.3153C84.8601 11.33 85.2417 13.7931 85.7506 12.8079C86.1323 12.3153 86.6412 9.85222 87.1501 11.8227C87.659 13.7931 88.0407 9.85222 88.8041 12.3153L89.0585 13.3005C88.9313 13.7931 88.9313 14.2857 88.6768 14.7783C89.1857 15.7635 89.6946 15.271 90.2036 15.271C90.9669 14.2857 91.6031 9.85223 92.4936 13.7931C93.0025 14.2857 93.1298 12.3153 93.5115 12.3153C94.7837 13.3005 96.056 11.3301 97.3282 13.3005C97.5827 13.7931 97.8371 12.3153 98.2188 12.3153C99.3639 11.8227 100.382 11.3301 101.399 8.37441C101.908 7.8818 102.672 9.35961 103.181 6.89656C103.308 7.88178 103.308 8.37438 103.435 9.85222H106.743C106.87 9.85222 106.997 8.86701 107.125 8.86701C107.252 12.3153 108.015 13.3005 108.524 15.7636C109.16 11.8227 109.924 16.2562 110.814 15.271C110.814 14.7784 111.069 14.2857 111.45 11.8227C111.45 11.3301 111.196 10.3449 111.069 8.37441C111.705 10.3449 112.468 9.85222 113.104 9.85222C113.74 9.85222 114.377 9.35963 115.14 10.8375C115.776 12.3153 116.285 7.88178 116.921 9.35961C117.557 9.85222 117.684 12.8079 118.193 12.3153C118.448 11.8227 118.448 11.8227 118.066 9.85222C118.321 9.35961 118.448 8.86703 118.83 7.8818C120.229 12.3153 121.628 6.40396 123.028 6.40396C123.028 7.38918 123.155 7.88179 123.155 8.86701C124.3 11.3301 124.809 6.40396 125.827 5.91135C126.081 7.8818 126.845 5.41875 127.226 7.8818C127.481 5.41875 128.499 7.88177 128.626 4.92611C129.262 5.41872 129.771 7.88179 130.407 6.40396C130.662 6.89657 130.662 7.8818 130.662 8.37441C131.298 10.8375 131.679 7.8818 132.316 7.8818C132.443 8.86703 132.697 9.85223 132.824 11.3301C133.206 10.3448 133.206 9.35962 133.079 8.86701C132.824 7.88179 132.57 7.38917 132.188 6.89656C131.807 6.40395 131.552 4.92614 131.679 2.9557C133.079 6.40397 134.606 5.91135 136.132 5.91135C136.387 3.94091 136.641 5.41874 136.896 5.91135C137.913 6.89657 138.931 3.94089 139.949 4.43351C140.967 1.47784 142.239 3.94092 143.257 2.9557C143.384 4.43353 143.766 4.43352 143.766 5.91135H144.275C144.529 3.4483 143.384 3.4483 143.766 0.985244C143.893 2.25353e-05 144.02 3.00592e-05 144.402 0.492641C144.402 0.985252 144.402 1.47783 144.529 2.46305C145.802 2.95567 147.074 6.40397 148.346 2.9557C148.728 2.9557 148.728 3.94089 148.982 4.43351C149.491 4.92612 149.618 1.97046 150.254 1.47785C150.763 3.44829 151.399 2.9557 152.163 2.9557C152.545 3.44831 152.672 5.41874 153.181 5.91135C153.181 4.43352 153.69 3.94091 153.435 0.985244C154.198 3.4483 154.962 2.46308 155.598 2.9557C155.725 4.43353 155.725 5.41874 155.343 5.91135C154.835 6.40396 154.326 7.38917 153.944 9.35961V14.7783C153.69 13.7931 153.562 13.7931 153.435 13.3005C152.926 14.2857 152.799 16.2562 152.926 18.7192C154.326 16.2562 155.344 12.3153 156.234 7.38916C157.379 8.86699 158.397 4.92612 159.542 6.40396C159.796 7.38918 159.669 8.37438 159.669 9.85222C159.288 11.33 158.906 10.3449 158.397 10.8375C158.142 12.3153 157.761 13.7931 156.997 14.2857C157.761 17.734 158.397 18.2266 159.16 17.734L159.796 15.271C160.178 16.2562 160.687 16.2562 160.941 17.734C161.832 17.2414 162.723 18.7192 163.613 16.2562V18.2266C163.868 19.7045 164.377 18.2266 164.631 19.2118C164.885 20.1971 165.14 20.1971 165.394 20.1971C165.776 20.1971 166.158 20.1971 166.285 18.7192C166.539 19.2118 166.667 20.6897 166.921 19.2118C167.176 18.2266 167.684 19.7045 167.939 18.2266C168.193 17.2414 168.575 17.2414 168.702 17.734C169.211 19.7045 169.975 18.7192 170.483 19.2118C170.611 19.2118 170.738 20.1971 170.865 20.1971C171.501 18.2266 172.265 17.734 173.155 16.7488C173.282 16.7488 173.41 18.2266 173.791 19.2118H175.191C175.827 21.6749 174.809 23.1527 174.936 25.1232C175.064 26.601 175.318 26.1084 175.445 26.1084C175.7 25.6158 175.573 24.6306 175.7 23.6453C176.081 22.6601 176.463 23.1527 176.845 23.1527C177.226 24.138 176.845 25.6158 177.099 26.601C177.481 27.5862 177.735 27.0936 177.863 26.1084C178.117 26.601 178.244 27.0936 178.499 28.0788C178.372 28.5715 178.117 29.0641 178.244 30.0493C179.008 30.5419 179.389 25.1232 180.28 28.0788C180.025 30.0493 179.771 31.5271 179.517 33.4976C180.534 36.4532 180.789 29.064 181.679 31.5271C182.061 30.5419 181.679 28.0788 182.443 28.5714C182.188 27.5862 181.934 27.0936 181.807 26.1084H180.534C180.153 25.1232 179.771 23.6453 179.644 21.6749C179.517 22.6601 179.517 23.1527 179.389 24.1379C179.135 24.6305 179.008 24.6306 178.753 23.6453C178.753 21.1823 179.389 20.1971 179.771 18.7192C180.407 20.1971 180.916 21.6749 181.552 19.2118C181.807 19.7044 181.552 21.6749 182.061 22.1675C182.57 21.6749 182.824 19.2118 183.333 18.2266C184.224 17.2414 185.114 19.7044 185.878 16.7488C187.786 19.2118 189.44 22.1675 190.967 27.0936C191.094 27.5862 190.967 28.0788 190.967 29.5567C189.44 26.1084 187.913 29.5567 186.514 26.1084C186.514 28.5714 187.023 28.5715 187.15 30.5419H185.242C184.86 31.5271 185.114 33.0049 184.606 33.4976C184.097 33.4976 183.969 31.5271 183.715 31.0345C183.588 31.0345 183.461 31.5271 183.461 31.5271V36.9458C183.842 38.4236 183.969 34.9754 184.351 36.4532C184.733 41.3793 184.733 41.3793 185.878 42.3646C186.005 44.8276 186.514 45.8128 186.896 47.7833C187.659 46.7981 188.422 48.7685 189.186 49.2611V45.8128C189.822 43.3498 190.331 45.3202 190.712 46.798C191.221 48.2759 191.857 47.7833 192.366 48.2759C192.494 49.2611 192.112 49.2611 192.112 50.2463C191.73 51.7242 192.621 52.2168 192.239 53.6946C191.221 53.202 190.458 48.7685 189.186 49.7537V53.202C189.313 54.1872 189.567 53.6946 189.822 54.1872C189.949 57.6355 189.949 61.0837 189.44 64.0394C189.822 66.0098 190.204 64.0394 190.458 65.5173C190.331 66.0099 190.331 66.5025 190.204 66.9951C190.204 68.4729 190.712 66.9951 190.84 68.4729C190.331 70.936 189.313 71.4286 189.059 75.3695C189.44 75.8621 189.822 76.8473 190.204 77.3399C191.349 75.8621 191.985 72.4138 192.621 69.9508C192.875 70.936 193.257 71.9212 193.511 72.9064C193.384 73.399 192.875 73.399 192.621 75.3695C192.239 76.8473 193.13 78.8177 192.621 81.2808L193.13 83.2512C193.257 81.7734 193.384 80.7882 193.511 79.3104C193.766 80.7882 193.893 80.7882 193.893 81.2808C195.165 81.7734 194.911 85.2217 195.42 88.67ZM5.72519 81.2808C5.72519 81.7734 5.59797 81.7734 5.59797 82.266C5.59797 81.7734 5.59796 81.2808 5.72519 81.2808ZM104.326 172.906C104.071 173.892 104.198 174.384 104.453 175.369C104.326 174.384 104.835 173.399 104.326 172.906ZM114.885 137.438C114.758 136.946 114.631 136.946 114.504 137.438C114.631 137.931 114.758 137.931 114.885 137.438ZM116.539 141.872L116.158 138.916C115.903 141.872 116.031 142.365 116.539 141.872ZM121.756 138.916C121.374 137.931 121.247 137.931 120.992 138.424V140.394L121.756 138.916ZM165.14 169.951C165.013 169.951 164.885 169.951 164.885 170.936L165.013 171.429C165.14 170.936 165.14 170.443 165.14 169.951ZM166.539 130.542C166.412 130.049 166.285 130.049 166.158 130.542C166.285 131.034 166.412 131.034 166.539 130.542ZM167.684 125.616C167.43 125.616 167.303 126.108 167.303 127.094C167.557 127.094 167.684 126.601 167.684 125.616ZM167.939 124.631C167.684 124.138 167.557 124.631 167.684 125.616C167.812 125.616 167.939 125.123 167.939 124.631ZM189.186 147.783C189.313 147.291 189.313 146.798 189.186 146.305C189.059 146.798 189.059 147.291 189.186 147.783ZM185.115 93.1035C184.987 92.6108 184.86 92.6108 184.733 93.1035C184.86 93.5961 184.987 93.5961 185.115 93.1035ZM187.913 64.0394C187.786 63.5468 187.659 63.5468 187.532 64.0394C187.659 64.532 187.786 64.532 187.913 64.0394ZM189.313 96.5518C189.313 96.5518 189.186 96.0591 189.059 96.0591C188.931 96.0591 188.931 95.5665 188.804 95.5665C188.804 95.5665 188.931 96.0591 189.059 96.0591C189.186 96.0591 189.313 96.0591 189.313 96.5518ZM193.13 92.6109C193.003 92.6109 193.003 93.1035 193.13 92.6109C193.003 93.5961 193.13 94.0887 193.384 93.5961C193.384 93.1034 193.257 92.6109 193.13 92.6109Z" />
</svg>