
<svg width="28" height="24" viewBox="0 0 28 24" fill="none" xmlns="http://www.w3.org/2000/svg">
    <path
        d="M25.6129 0.211879C25.6129 0.211879 28.2031 -0.826978 27.9872 1.69596C27.9153 2.73483 27.2678 6.37083 26.7641 10.3037L25.0373 21.9537C25.0373 21.9537 24.8934 23.6604 23.5983 23.9573C22.3031 24.254 20.3605 22.9184 20.0007 22.6216C19.7129 22.399 14.6045 19.0598 12.8057 17.4273C12.3021 16.982 11.7265 16.0916 12.8777 15.0527L20.4325 7.63234C21.2959 6.74187 22.1593 4.66416 18.5617 7.1871L8.48874 14.2365C8.48874 14.2365 7.33754 14.9785 5.17907 14.3107L0.502281 12.8266C0.502281 12.8266 -1.22453 11.7136 1.72544 10.6004C8.92047 7.11284 17.7703 3.55104 25.6129 0.211879Z"
        fill="#e0efbc" />
</svg>
    